<?xml version="1.0" encoding="UTF-8"?>
<svg id="Layer_2" data-name="Layer 2" xmlns="http://www.w3.org/2000/svg" viewBox="0 0 273.12 324.68">
  <defs>
    <style>
      .cls-1 {
        fill: none;
      }

      .cls-1, .cls-2 {
        stroke: #9dbadc;
      }

      .cls-2 {
        fill: #f5fbfe;
      }

      .cls-3 {
        stroke: #68b193;
      }

      .cls-3, .cls-4 {
        fill: #b7dfcf;
      }

      .cls-4 {
        stroke: #4bb68a;
        stroke-miterlimit: 10;
      }
    </style>
  </defs>
  <g id="Layer_1-2" data-name="Layer 1">
    <g>
      <path class="cls-4" d="M91.92,37.6c-.25-1.96-.76-4.86-1.95-8.16-1-2.77-4.51-12.5-13.62-17.18-1.88-.97-5.1-2.29-9.51-2.46-.6,1.64-1.59,5-1.17,9.25,.54,5.42,3.05,9.02,4.08,10.35-1.33-.38-5.77-1.48-10.73,.92-4.7,2.27-6.98,6.3-7.68,7.66,.46,1.43,2.28,6.51,7.29,9.83,5.09,3.36,10.07,2.65,11.4,2.41-3.1,4.4-3.88,8.23-4.11,10.45-.35,3.36,.01,8.45,.61,8.5,.05,0,.08-.02,.09-.03,.95-.68,13.65-3.36,18.96-7.48,1.71-1.33,6.36-5.69,7.09-18.69,2.16-1.25,6.26-3.07,10.86-1.91,9.16,2.32,12.38,14.43,12.77,15.96,.83,3.28,.92,6.5,1.05,11.29,.11,3.85-.04,7.06-.22,9.35-1.83-1.38-3.65-2.76-5.48-4.15-2.41-.31-4.82-.61-7.24-.92,.35,2.03,.71,4.07,1.06,6.11,.53,2.83,2.39,5.12,4.86,5.95,3.54,1.18,6.34-1.31,6.55-1.51-.04,11.62-.08,23.23-.12,34.84-.74-3.65-2.13-5.62-3.59-6.72-2.35-1.79-4.46-1-8.04-2.33-2.78-1.03-4.93-2.79-6.55-4.53-.24,1.89-.48,5.6,.87,9.88,1.15,3.67,2.97,6.16,4.11,7.5,1.09,.89,3.47,2.6,6.89,3.06,2.8,.38,5.06-.23,6.31-.68v43.04h3.57v-28.07c4.55,1.35,8.09,.73,9.91,.26,9.06-2.38,13.35-11.36,14.35-13.44,1.81-3.78,2.47-7.27,2.75-9.52-1.53,.92-3.9,2.16-6.96,2.93-5.98,1.51-8.95-.16-12.98,1.78-1.84,.89-4.29,2.72-6.49,6.95v-26.49c.93,.33,4.03,1.28,7.61-.22,3.8-1.59,5.58-4.87,6.04-5.77,1.14-3.36,2.27-6.73,3.41-10.09-1.22,.86-3.09,1.93-5.49,2.28-2.49,.37-3.65-.3-5.81,.14-1.48,.3-3.51,1.13-5.75,3.57,.19-2.6,.41-6.39,.5-10.97,.34-16.97,.46-25.6-3.82-33.11-1.32-2.32-4.76-8.17-11.53-10.59-6.48-2.31-12.18-.12-14.13,.74Z"/>
      <path class="cls-4" d="M176.16,28.31c.25-1.96,.76-4.86,1.95-8.16,1-2.77,4.51-12.5,13.62-17.18,1.88-.97,5.1-2.29,9.51-2.46,.6,1.64,1.59,5,1.17,9.25-.54,5.42-3.05,9.02-4.08,10.35,1.33-.38,5.77-1.48,10.73,.92,4.7,2.27,6.98,6.3,7.68,7.66-.46,1.43-2.28,6.51-7.29,9.83-5.09,3.36-10.07,2.65-11.4,2.41,3.1,4.4,3.88,8.22,4.11,10.45,.35,3.36-.01,8.45-.61,8.5-.04,0-.08-.02-.09-.03-.95-.68-13.65-3.36-18.96-7.48-1.71-1.33-6.36-5.69-7.09-18.69-2.16-1.25-6.26-3.07-10.86-1.91-9.16,2.32-12.38,14.43-12.77,15.96-.83,3.28-.92,6.5-1.05,11.29-.11,3.85,.04,7.06,.22,9.35,1.83-1.38,3.65-2.76,5.48-4.15,2.41-.31,4.82-.61,7.24-.92-.35,2.03-.71,4.07-1.06,6.11-.53,2.83-2.39,5.12-4.86,5.95-3.54,1.18-6.34-1.31-6.55-1.51,.04,11.61,.08,23.23,.12,34.85,.74-3.65,2.13-5.62,3.59-6.72,2.35-1.79,4.46-1,8.04-2.33,2.78-1.03,4.93-2.79,6.55-4.53,.24,1.9,.48,5.6-.87,9.88-1.15,3.67-2.97,6.16-4.11,7.5-1.09,.89-3.47,2.6-6.89,3.06-2.81,.38-5.06-.23-6.31-.68v43.04h-3.57v-28.07c-4.55,1.35-8.09,.73-9.91,.26-9.06-2.38-13.35-11.36-14.35-13.44-1.81-3.78-2.47-7.27-2.75-9.52,1.53,.92,3.9,2.16,6.96,2.93,5.97,1.51,8.95-.16,12.98,1.78,1.84,.89,4.29,2.72,6.49,6.95v-26.49c-.93,.33-4.03,1.28-7.61-.22-3.8-1.59-5.58-4.87-6.04-5.77-1.14-3.36-2.27-6.73-3.41-10.09,1.22,.86,3.09,1.93,5.49,2.28,2.49,.37,3.65-.3,5.81,.14,1.48,.3,3.51,1.13,5.75,3.57-.18-2.6-.41-6.39-.5-10.97-.35-16.97-.46-25.6,3.82-33.11,1.32-2.32,4.76-8.17,11.54-10.59,6.48-2.31,12.18-.12,14.13,.74h0Z"/>
      <path class="cls-2" d="M66.14,302.15c4.54-3.07,141.97,0,141.97,0l18.12-113.6h21.14v-32.81H22.89v31.64l20.96,.16,22.29,114.61Z"/>
      <rect class="cls-3" x=".5" y="299.75" width="272.12" height="24.43"/>
      <path class="cls-1" d="M55.29,245.9l-7.89-41.54H223.61l-6.65,41.54H55.29Z"/>
    </g>
  </g>
</svg>