<?xml version="1.0" encoding="UTF-8"?>
<svg id="Layer_2" data-name="Layer 2" xmlns="http://www.w3.org/2000/svg" viewBox="0 0 321 262.5">
  <defs>
    <style>
      .cls-1 {
        fill: none;
      }

      .cls-1, .cls-2 {
        stroke: #9dbadc;
      }

      .cls-2 {
        fill: #f5fbfe;
      }

      .cls-3 {
        stroke: #68b193;
      }

      .cls-3, .cls-4 {
        fill: #b7dfcf;
      }

      .cls-4 {
        stroke: #4bb68a;
        stroke-miterlimit: 10;
      }
    </style>
  </defs>
  <g id="Layer_1-2" data-name="Layer 1">
    <g>
      <path class="cls-4" d="M157.19,26.95c-3.63-1.88-10.26-4.67-18.84-4.63-14.47,.04-24.39,8.03-27.36,10.61,7.25,4.12,14.53,8.24,21.78,12.36,1.24,.41,9.08,2.84,16.66-1.84,5.45-3.37,7.67-8.47,8.33-10.25,1.91,4.97,5.18,15.5,3.5,28.8-1.39,11.04-5.57,19.15-8.27,23.5h3.69c2.65-5.12,6.42-14,7.46-25.72,1.16-13.21-1.7-23.69-3.69-29.35h9.14c11.21,1.86,16.35-.64,18.94-3.44,3.5-3.78,3.05-8.86,7.67-12.08,3.25-2.26,7.09-2.26,9.78-1.94-1.18-2.16-3.92-6.49-9.1-9.48-6.53-3.76-12.83-3.05-16-2.69-2.96,.34-9.74,1.15-15.59,6.64-7.77,7.3-8.08,17.46-8.1,19.49l-.02,.02Z"/>
      <path class="cls-2" d="M77.73,236.02c5.33-3.61,166.86,0,166.86,0l21.29-133.52h24.84V63.94H26.9v37.19l24.63,.18,26.2,134.71Z"/>
      <rect class="cls-3" x=".5" y="233.11" width="320" height="28.89"/>
      <path class="cls-1" d="M64.91,170l-9.31-49h207.31l-7.84,49H64.91Z"/>
    </g>
  </g>
</svg>