<svg width="25" height="25" viewBox="0 0 25 25" fill="none" xmlns="http://www.w3.org/2000/svg">
<circle cx="12.5" cy="12.5" r="12.5" fill="url(#paint0_linear_167_3079)"/>
<path d="M15.5674 6.67475C14.7124 6.05825 13.6384 5.75 12.3454 5.75C11.3622 5.75 10.5319 5.96675 9.85765 6.401C8.7874 7.0805 8.2189 8.23475 8.1499 9.86225H10.6302C10.6302 9.3875 10.7689 8.93225 11.0449 8.49125C11.3217 8.05175 11.7912 7.832 12.4534 7.832C13.1269 7.832 13.5912 8.0105 13.8439 8.36675C14.0982 8.7245 14.2249 9.11975 14.2249 9.55325C14.2249 9.93125 14.0359 10.277 13.8072 10.5905C13.6708 10.7851 13.5033 10.9559 13.3114 11.096C13.3114 11.096 11.9667 11.9585 11.3764 12.6515C11.0344 13.0527 11.0037 13.655 10.9729 14.5175C10.9714 14.579 10.9947 14.7065 11.2092 14.7065H13.1374C13.3294 14.7065 13.3692 14.5647 13.3714 14.501C13.3849 14.1875 13.4194 14.0262 13.4772 13.8448C13.5852 13.502 13.8807 13.2035 14.2114 12.9455L14.8939 12.4753C15.5104 11.9945 16.0017 11.6007 16.2192 11.2917C16.5897 10.7847 16.8507 10.1592 16.8507 9.41675C16.8499 8.2055 16.4224 7.29275 15.5674 6.67475ZM12.3057 16.193C11.4514 16.1667 10.7464 16.7585 10.7194 17.6855C10.6932 18.611 11.3629 19.2237 12.2179 19.2485C13.1097 19.2747 13.7959 18.7032 13.8237 17.7762C13.8492 16.8492 13.1982 16.2192 12.3057 16.193Z" fill="#F6F6F6"/>
<defs>
<linearGradient id="paint0_linear_167_3079" x1="12.5" y1="0" x2="32.7223" y2="12.7969" gradientUnits="userSpaceOnUse">
<stop/>
<stop offset="1" stop-color="#CCEBF6"/>
</linearGradient>
</defs>
</svg>
