<?xml version="1.0" encoding="UTF-8"?>
<svg id="Layer_2" data-name="Layer 2" xmlns="http://www.w3.org/2000/svg" viewBox="0 0 279.49 395.12">
  <defs>
    <style>
      .cls-1 {
        fill: #fbfafa;
      }

      .cls-2 {
        fill: #151616;
      }
    </style>
  </defs>
  <g id="Layer_1-2" data-name="Layer 1">
    <g>
      <path class="cls-1" d="M237.5,392.22c-43.48,0-86.95,0-130.43,0-.05-7.81-.27-15.62-.13-23.43,.31-16.49-6.38-29.27-19.13-39.63-27.98-22.74-42.7-52.29-43.88-88.45-.17-5.31,.35-10.7-.32-15.94-1.8-14.08-9.6-23.57-22.88-28.76-9.79-3.83-15.23-13.05-14-22.82,1.25-9.91,8.61-18.18,18-19.31,17.81-2.14,32.45,3.86,42.79,18.67,2.37,3.39,3.43,8.15,3.8,12.39,.61,6.93,.1,13.95,.18,20.94,.11,9.73-1.49,19.09-4.67,28.32-2.31,6.7-3.82,13.68-5.48,20.59-.58,2.38-1.1,5.41,2.44,5.96,3.59,.56,3.55-2.49,4.09-4.93,1.28-5.81,2.16-11.79,4.22-17.32,3.99-10.73,5.93-21.64,5.9-33.09-.12-58.53-.03-117.06-.09-175.59,0-5.9,1.47-11.16,5.3-15.65,5.98-6.99,15.35-9.44,23.93-6.36,8.98,3.22,14.6,11.14,14.6,21.03,.04,50.71,.02,101.43,.02,152.14,0,1.33-.38,2.84,.13,3.94,.6,1.3,1.96,2.26,2.99,3.36,1.06-1.05,2.47-1.94,3.08-3.22,.52-1.08,.15-2.61,.15-3.94,0-24.11,.02-48.22,0-72.33,0-9.99,3.69-17.84,13.06-22.17,15.06-6.96,30.98,3.97,31.06,21.38,.12,24.28,.03,48.55,.04,72.83,0,1.49-.28,3.13,.22,4.44,.45,1.18,2.03,2.97,2.71,2.81,1.29-.31,2.66-1.63,3.32-2.89,.55-1.05,.15-2.6,.15-3.93,0-21.12,0-42.23,.02-63.35,0-1.98,0-4.02,.42-5.94,2.4-11.1,12.62-18.9,23.14-17.77,12.03,1.29,20.27,10.28,20.31,22.39,.07,21.78,.02,43.56,.03,65.35,0,2.62-.52,6.12,3.16,6.19,4.13,.08,3.34-3.67,3.46-6.39,.06-1.33,.01-2.66,.01-3.99,0-13.47-.19-26.94,.08-40.4,.26-13.02,10.78-22.4,23.56-21.5,11.7,.82,20.1,10.59,20.12,23.63,.04,37.41-.17,74.83,.09,112.24,.16,22.99-5.88,43.78-19.18,62.63-9.16,12.98-14.52,27.59-15.49,43.51-.7,11.43-.62,22.91-.89,34.37Z"/>
      <path class="cls-2" d="M237.5,392.22c.27-11.46,.19-22.94,.89-34.37,.97-15.92,6.34-30.53,15.49-43.51,13.3-18.85,19.34-39.64,19.18-62.63-.26-37.41-.04-74.82-.09-112.24-.02-13.04-8.42-22.81-20.12-23.63-12.78-.9-23.3,8.48-23.56,21.5-.27,13.46-.07,26.94-.08,40.4,0,1.33,.05,2.66-.01,3.99-.12,2.72,.66,6.47-3.46,6.39-3.68-.07-3.16-3.57-3.16-6.19-.01-21.78,.04-43.56-.03-65.35-.04-12.12-8.28-21.1-20.31-22.39-10.52-1.13-20.75,6.67-23.14,17.77-.42,1.92-.42,3.96-.42,5.94-.03,21.12-.02,42.23-.02,63.35,0,1.33,.4,2.88-.15,3.93-.66,1.26-2.03,2.58-3.32,2.89-.68,.16-2.26-1.63-2.71-2.81-.5-1.32-.22-2.95-.22-4.44,0-24.28,.08-48.55-.04-72.83-.08-17.42-16-28.35-31.06-21.38-9.37,4.33-13.07,12.19-13.06,22.17,.02,24.11,0,48.22,0,72.33,0,1.33,.38,2.85-.15,3.94-.61,1.27-2.02,2.16-3.08,3.22-1.03-1.1-2.4-2.06-2.99-3.36-.5-1.1-.13-2.61-.13-3.94,0-50.71,.02-101.43-.02-152.14,0-9.89-5.62-17.81-14.6-21.03-8.58-3.08-17.95-.63-23.93,6.36-3.84,4.49-5.31,9.74-5.3,15.65,.06,58.53-.03,117.06,.09,175.59,.02,11.45-1.91,22.36-5.9,33.09-2.06,5.53-2.94,11.51-4.22,17.32-.54,2.44-.5,5.49-4.09,4.93-3.54-.55-3.02-3.58-2.44-5.96,1.67-6.9,3.17-13.89,5.48-20.59,3.18-9.23,4.78-18.59,4.67-28.32-.08-6.98,.43-14.01-.18-20.94-.37-4.24-1.43-9-3.8-12.39-10.33-14.8-24.98-20.81-42.79-18.67-9.38,1.13-16.75,9.4-18,19.31-1.23,9.77,4.21,18.99,14,22.82,13.28,5.19,21.09,14.68,22.88,28.76,.67,5.24,.15,10.63,.32,15.94,1.18,36.15,15.9,65.71,43.88,88.45,12.75,10.36,19.44,23.14,19.13,39.63-.15,7.81,.07,15.62,.13,23.43-1.34,.97-2.68,1.93-4.01,2.9-.83-1.6-2.32-3.18-2.39-4.81-.38-9.46-.01-18.96-.67-28.39-.77-11.03-6.36-19.75-14.91-26.57-31.92-25.51-47.52-58.85-47.89-99.56-.04-4.64,.3-9.44-.7-13.9-2.29-10.2-9.2-16.36-18.82-20.18C5.64,196.92-1.24,184.86,.19,172.21c1.41-12.49,11.03-22.67,23.81-24.67,16.56-2.59,30.74,2.59,42.87,13.91,1.2,1.12,2.33,2.33,4.62,4.62,0-2.91,0-4.73,0-6.55,0-43.07-.02-86.14,.02-129.21,.01-15.47,8.17-26.21,22.24-29.57,16.51-3.94,33.56,8.22,34.13,25.17,.62,18.27,.23,36.58,.27,54.87,0,1.98,0,3.96,0,6.99,8.55-7.43,17.43-11.5,28.2-8.96,10.78,2.54,17.57,9.46,21.5,20,9.67-10.52,21.09-14.21,34.18-8.62,11.94,5.1,17.11,15.11,17.34,28.64,1.46-1.21,2.46-2.08,3.51-2.9,9.36-7.34,19.71-8.79,30.35-3.76,10.48,4.95,16.11,13.74,16.15,25.44,.12,40.41,.24,80.82-.04,121.23-.15,20.61-6.55,39.52-18.33,56.42-11.29,16.19-17.08,33.93-16.66,53.7,.15,6.98,.17,13.97-.08,20.95-.06,1.73-1.4,3.41-2.15,5.12-1.53-.93-3.06-1.87-4.59-2.8Z"/>
    </g>
  </g>
</svg>