<svg width="56" height="53" viewBox="0 0 56 53" fill="none" xmlns="http://www.w3.org/2000/svg">
<path d="M56 26.5685C55.6913 27.2604 55.3939 27.9438 54.7596 28.4344C53.6211 29.3135 51.9332 29.3305 50.8174 28.4231C50.5908 28.2387 50.3784 28.0374 50.1745 27.8304C43.3295 20.9794 36.4845 14.1256 29.6395 7.27174C28.4755 6.10628 27.5268 6.10628 26.3685 7.26607C19.4838 14.1568 12.602 21.0475 5.71729 27.9382C4.45987 29.1972 3.05801 29.4581 1.66182 28.7066C-0.0260679 27.7992 -0.527337 25.5477 0.619635 24.0051C0.792389 23.7725 0.990631 23.5542 1.19737 23.35C8.10469 16.431 15.012 9.51192 21.9222 2.59571C25.3829 -0.866654 30.6165 -0.863818 34.0801 2.59571C35.9521 4.46442 37.8184 6.33597 39.6847 8.21318C39.8093 8.33795 39.8942 8.49959 39.9962 8.64421C40.0443 8.61585 40.0953 8.58466 40.1435 8.5563C40.1435 7.47024 40.1293 6.38417 40.1463 5.30094C40.1718 3.71013 41.3301 2.3802 42.7942 2.142C44.8446 1.81023 46.5948 3.35851 46.5892 5.41154C46.5807 8.25856 46.6175 11.1056 46.5693 13.9526C46.5552 14.7778 46.7732 15.3563 47.3793 15.9432C49.6732 18.1636 51.8992 20.452 54.1648 22.6978C54.9238 23.4493 55.6772 24.1951 56 25.2556V26.5685Z" fill="white"/>
<path d="M7.75904 39.8737C7.75904 37.5938 7.77037 35.3111 7.75054 33.0312C7.74488 32.4215 7.94878 31.9451 8.37359 31.5226C14.4879 25.4117 20.5938 19.2923 26.7053 13.1786C27.5634 12.3194 28.4244 12.3137 29.2768 13.1644C35.4025 19.2895 41.5225 25.4231 47.6482 31.5481C48.0758 31.9735 48.2486 32.4612 48.2458 33.068C48.2316 37.4492 48.1778 41.8303 48.2571 46.2086C48.3165 49.4327 45.7451 52.2854 42.2957 52.2627C39.4155 52.2429 36.5353 52.2514 33.6551 52.2684C33.236 52.2684 33.1935 52.0983 33.1935 51.7523C33.202 47.3372 33.1935 42.9192 33.2105 38.504C33.2105 38.056 33.1142 37.9227 32.6498 37.9256C29.5515 37.9454 26.4533 37.9511 23.355 37.9227C22.8424 37.9171 22.7716 38.0815 22.7745 38.5352C22.7915 42.9164 22.7745 47.2946 22.7971 51.6758C22.7971 52.1748 22.6612 52.2741 22.1911 52.2684C19.4015 52.2457 16.6148 52.2684 13.8252 52.2542C10.7043 52.2401 8.40191 50.3657 7.82701 47.3712C7.75337 46.9827 7.75904 46.5715 7.75904 46.1717C7.75337 44.0733 7.75621 41.9749 7.75621 39.8765L7.75904 39.8737Z" fill="white"/>
</svg>
