<svg width="14" height="16" viewBox="0 0 14 16" fill="none" xmlns="http://www.w3.org/2000/svg">
    <path d="M10.7172 2.97529C10.2592 2.57849 9.66797 2.36988 9.06238 2.39143C8.45679 2.41298 7.88184 2.6631 7.45323 3.09145L2.64648 7.89679C2.54921 8.00118 2.43191 8.08491 2.30157 8.14298C2.17124 8.20105 2.03055 8.23228 1.88788 8.23479C1.74522 8.23731 1.60351 8.21107 1.47121 8.15763C1.33891 8.10419 1.21873 8.02465 1.11784 7.92376C1.01695 7.82287 0.937408 7.70268 0.88397 7.57038C0.830532 7.43809 0.804289 7.29638 0.806806 7.15371C0.809323 7.01105 0.840549 6.87036 0.898621 6.74003C0.956693 6.60969 1.04042 6.49239 1.14481 6.39512L5.95014 1.58979C6.37234 1.16192 6.8756 0.822512 7.43051 0.591421C7.98541 0.360331 8.58082 0.242193 9.18192 0.243915C9.78302 0.245637 10.3777 0.367184 10.9313 0.601449C11.4849 0.835715 11.9862 1.178 12.4059 1.60828C12.8257 2.03856 13.1554 2.54821 13.3759 3.10743C13.5963 3.66664 13.7031 4.2642 13.6899 4.86515C13.6767 5.46611 13.5438 6.0584 13.299 6.6074C13.0542 7.1564 12.7024 7.65109 12.2642 8.06254L5.57331 14.4319C5.05613 14.9365 4.35968 15.2149 3.63717 15.206C2.91466 15.1971 2.22528 14.9016 1.72069 14.3844C1.21609 13.8672 0.93761 13.1708 0.94651 12.4483C0.95541 11.7258 1.25096 11.0364 1.76814 10.5318L7.77906 4.51945C7.87712 4.41802 7.9944 4.33713 8.12406 4.28151C8.25371 4.22589 8.39315 4.19665 8.53422 4.19549C8.6753 4.19433 8.8152 4.22128 8.94575 4.27476C9.0763 4.32825 9.19489 4.4072 9.29461 4.507C9.39432 4.60681 9.47316 4.72548 9.52652 4.85608C9.57988 4.98668 9.6067 5.1266 9.60541 5.26768C9.60411 5.40876 9.57474 5.54816 9.51899 5.67777C9.46325 5.80737 9.38225 5.92457 9.28073 6.02254L3.27406 12.0349C3.16897 12.1475 3.11129 12.2963 3.11299 12.4503C3.11469 12.6043 3.17564 12.7518 3.28319 12.8621C3.39073 12.9724 3.53662 13.037 3.69056 13.0425C3.8445 13.0481 3.99467 12.9942 4.10989 12.892L10.7994 6.52262C11.0414 6.29229 11.2326 6.0139 11.3607 5.70532C11.4888 5.39674 11.551 5.06479 11.5433 4.73077C11.5355 4.39675 11.458 4.06804 11.3158 3.76572C11.1735 3.46341 10.9697 3.19417 10.7172 2.97529Z" fill="#F8F8F8"/>
</svg>