<svg width="15" height="29" viewBox="0 0 15 29" fill="none" xmlns="http://www.w3.org/2000/svg">
    <path d="M12.6603 28.9999C12.3615 29.001 12.0663 28.935 11.7964 28.807C11.5264 28.6789 11.2886 28.492 11.1003 28.2599L1.44033 16.2599C1.14616 15.9021 0.985352 15.4532 0.985352 14.9899C0.985352 14.5267 1.14616 14.0778 1.44033 13.7199L11.4403 1.71994C11.7798 1.31151 12.2676 1.05466 12.7965 1.0059C13.3253 0.95714 13.8519 1.12046 14.2603 1.45994C14.6688 1.79942 14.9256 2.28724 14.9744 2.81609C15.0231 3.34495 14.8598 3.87151 14.5203 4.27994L5.58033 14.9999L14.2203 25.7199C14.4649 26.0135 14.6202 26.371 14.668 26.7501C14.7158 27.1292 14.6539 27.514 14.4898 27.8591C14.3257 28.2041 14.0662 28.495 13.742 28.6972C13.4177 28.8993 13.0424 29.0044 12.6603 28.9999Z" fill="black"/>
</svg>