<?xml version="1.0" encoding="UTF-8"?>
<svg id="Layer_2" data-name="Layer 2" xmlns="http://www.w3.org/2000/svg" viewBox="0 0 163.84 163.79">
  <defs>
    <style>
      .cls-1 {
        fill: #3db697;
      }

      .cls-2 {
        fill: #a4dad3;
      }
    </style>
  </defs>
  <g id="Layer_1-2" data-name="Layer 1">
    <g>
      <path class="cls-1" d="M0,89.85V13.92c.51-2.67,1.76-6.86,5.28-9.8C8.6,1.34,12.49,.87,14.64,.7,23.49,0,60-.26,109.65,.33c2.16,1.18,5.67,3.49,8.56,7.61,.45,.64,1.62,2.36,2.65,4.85,1.59,3.84,2.14,7.89,2.08,12.37-.23,18.29-.04,36.58-.07,54.87-.03,14.12-8.56,22.69-22.64,22.73-13.3,.04-26.6,.09-39.9-.06-3.04-.03-5.31,.82-7.58,2.84-7.32,6.52-14.87,12.78-22.25,19.24-2.16,1.89-4.37,3.18-7.18,1.84-2.75-1.3-2.64-3.96-2.63-6.48,0-3.39-.04-4.61-.04-9.62,0-3.99-.02-6-.67-7-1.89-2.88-5.59-2.26-10.02-3.81-2.92-1.02-6.63-3.48-9.95-9.86Zm60.92-27.99c5.83,.06,10.69-4.45,10.9-10.12,.21-5.66-4.57-10.7-10.22-10.78-5.44-.07-10.46,4.63-10.58,9.91-.13,5.95,4.35,10.93,9.9,10.99Zm21-10.5c0,5.79,4.7,10.56,10.34,10.48,5.62-.07,10.35-5.03,10.22-10.69-.13-5.56-4.66-10.09-10.18-10.19-5.71-.1-10.38,4.57-10.39,10.4Zm-40.95-.06c-.02-5.78-4.75-10.47-10.45-10.35-5.48,.12-10.04,4.74-10.13,10.27-.09,5.71,4.63,10.59,10.28,10.62,5.61,.03,10.32-4.78,10.3-10.54Z"/>
      <path class="cls-2" d="M134.87,163.79c-4.48-4.8-8.53-8.7-11.79-11.68-4.85-4.45-6.18-5.26-7.16-5.77-5.02-2.65-10.71-3.24-16.96-2.66-5.44,.5-10.97,.25-16.44,.04-14.86-.59-24.66-14.28-20.53-28.41,.88-3.03,3.27-2.36,5.28-2.37,13.13-.07,26.26,0,39.39-.05,15.83-.07,26.19-10.41,26.31-26.21,.05-6.81,.1-13.63,0-20.44-.05-3.21,1.29-4.21,4.45-4.43,10.78-.75,17.18,3.62,17.18,3.62,4.84,2.97,7.71,6.86,9.26,9.44v55.95c-3.76,6.34-7.15,8.58-9.62,9.41-2.83,.96-5.44,2.66-8.39,3.18-2.82,.49-2.86,2.72-2.9,4.96-.1,5.21,.83,10.58-2.07,15.42h-5.99Z"/>
    </g>
  </g>
</svg>