<?xml version="1.0" encoding="UTF-8"?>
<svg id="Layer_2" data-name="Layer 2" xmlns="http://www.w3.org/2000/svg" viewBox="0 0 161.08 212">
  <defs>
    <style>
      .cls-1 {
        fill: #81cbac;
      }

      .cls-1, .cls-2 {
        stroke: #4bb68a;
        stroke-miterlimit: 10;
      }

      .cls-3 {
        fill: #f5fbfe;
        stroke: #9dbadc;
      }

      .cls-2 {
        fill: #b7dfcf;
      }
    </style>
  </defs>
  <g id="Layer_2-2" data-name="Layer 2">
    <g>
      <path class="cls-1" d="M31.2,61.07c-.19-1.48-.58-3.67-1.48-6.16-.76-2.09-3.41-9.44-10.29-12.98-1.42-.73-3.86-1.73-7.18-1.86-.45,1.24-1.2,3.77-.89,6.99,.41,4.09,2.3,6.81,3.08,7.82-1-.29-4.36-1.12-8.11,.69-3.55,1.72-5.28,4.76-5.81,5.79,.35,1.08,1.73,4.92,5.51,7.42,3.84,2.54,7.61,2,8.61,1.82-2.34,3.32-2.93,6.21-3.1,7.9-.26,2.54,.01,6.38,.46,6.42,.03,0,.06-.02,.07-.02,.72-.51,10.32-2.54,14.32-5.65,1.29-1,4.81-4.3,5.36-14.12,1.63-.94,4.73-2.32,8.2-1.44,6.92,1.75,9.36,10.9,9.65,12.06,.62,2.48,.69,4.91,.79,8.53,.08,2.91-.03,5.34-.16,7.07-1.38-1.05-2.76-2.09-4.14-3.13-1.82-.23-3.64-.46-5.47-.69,.26,1.54,.53,3.08,.8,4.61,.4,2.14,1.81,3.87,3.67,4.5,2.67,.89,4.79-.99,4.95-1.14-.03,8.78-.06,17.55-.09,26.33-.56-2.76-1.61-4.25-2.71-5.08-1.78-1.35-3.37-.76-6.07-1.76-2.1-.78-3.73-2.11-4.95-3.42-.18,1.43-.36,4.23,.65,7.46,.87,2.78,2.24,4.66,3.11,5.67,.82,.67,2.62,1.96,5.21,2.31,2.12,.29,3.83-.18,4.76-.52v32.52h2.7v-21.2c3.44,1.02,6.11,.55,7.49,.19,6.85-1.8,10.09-8.58,10.84-10.16,1.37-2.86,1.87-5.5,2.08-7.19-1.15,.7-2.95,1.63-5.26,2.22-4.51,1.14-6.76-.12-9.81,1.35-1.39,.67-3.24,2.06-4.9,5.25v-20.01c.7,.25,3.05,.97,5.75-.16,2.87-1.2,4.22-3.68,4.56-4.36,.86-2.54,1.72-5.08,2.58-7.63-.92,.65-2.34,1.46-4.15,1.73-1.88,.28-2.76-.23-4.39,.11-1.12,.23-2.65,.85-4.34,2.7,.14-1.96,.31-4.83,.38-8.29,.26-12.82,.34-19.34-2.89-25.01-1-1.75-3.6-6.17-8.72-8-4.89-1.75-9.2-.09-10.68,.56Z"/>
      <path class="cls-2" d="M49.63,28.54c-.19-1.48-.58-3.67-1.48-6.16-.76-2.09-3.41-9.44-10.29-12.98-1.42-.73-3.86-1.73-7.18-1.86-.45,1.24-1.2,3.77-.89,6.99,.41,4.09,2.3,6.81,3.08,7.82-1-.29-4.36-1.12-8.11,.69-3.55,1.72-5.28,4.76-5.81,5.79,.35,1.08,1.73,4.92,5.51,7.42,3.84,2.54,7.61,2,8.61,1.82-2.34,3.32-2.93,6.21-3.1,7.9-.26,2.54,.01,6.38,.46,6.42,.03,0,.06-.02,.07-.02,.72-.51,10.32-2.54,14.32-5.65,1.29-1,4.81-4.3,5.36-14.12,1.63-.94,4.73-2.32,8.2-1.44,6.92,1.75,9.36,10.9,9.65,12.06,.62,2.48,.69,4.91,.79,8.53,.08,2.91-.03,5.34-.16,7.07-1.38-1.05-2.76-2.09-4.14-3.13-1.82-.23-3.64-.46-5.47-.69,.26,1.54,.53,3.08,.8,4.61,.4,2.14,1.81,3.87,3.67,4.5,2.67,.89,4.79-.99,4.95-1.14-.03,8.78-.06,17.55-.09,26.33-.56-2.76-1.61-4.25-2.71-5.08-1.78-1.35-3.37-.76-6.07-1.76-2.1-.78-3.73-2.11-4.95-3.42-.18,1.43-.36,4.23,.65,7.46,.87,2.78,2.24,4.66,3.11,5.67,.82,.67,2.62,1.96,5.21,2.31,2.12,.29,3.83-.18,4.76-.52v32.52h2.7v-21.21c3.44,1.02,6.11,.56,7.49,.19,6.85-1.8,10.09-8.58,10.84-10.16,1.37-2.86,1.87-5.5,2.08-7.19-1.15,.7-2.95,1.63-5.26,2.22-4.51,1.14-6.76-.12-9.81,1.35-1.39,.67-3.24,2.06-4.9,5.25v-20.01c.7,.25,3.05,.97,5.75-.16,2.87-1.2,4.22-3.68,4.56-4.36,.86-2.54,1.72-5.08,2.58-7.63-.92,.65-2.33,1.46-4.15,1.73-1.88,.28-2.76-.23-4.39,.11-1.12,.23-2.65,.85-4.34,2.7,.14-1.97,.31-4.83,.38-8.29,.26-12.82,.34-19.34-2.89-25.01-1-1.75-3.6-6.17-8.72-8-4.89-1.75-9.2-.09-10.68,.56Z"/>
      <path class="cls-2" d="M111.14,21.52c.19-1.48,.58-3.67,1.48-6.16,.76-2.09,3.41-9.44,10.29-12.98,1.42-.73,3.86-1.73,7.18-1.86,.45,1.24,1.2,3.77,.89,6.99-.41,4.09-2.3,6.81-3.08,7.82,1-.29,4.36-1.12,8.11,.69,3.55,1.72,5.28,4.76,5.81,5.79-.35,1.08-1.73,4.92-5.51,7.42-3.85,2.54-7.61,2-8.61,1.82,2.34,3.32,2.93,6.21,3.1,7.9,.26,2.54-.01,6.38-.46,6.42-.03,0-.06-.02-.07-.02-.72-.51-10.32-2.54-14.32-5.65-1.29-1-4.81-4.3-5.36-14.12-1.64-.94-4.73-2.32-8.21-1.44-6.92,1.75-9.35,10.9-9.65,12.06-.62,2.48-.69,4.91-.79,8.53-.08,2.91,.03,5.34,.16,7.07,1.38-1.05,2.76-2.09,4.14-3.13,1.82-.23,3.64-.46,5.47-.69-.26,1.54-.53,3.08-.8,4.61-.4,2.14-1.81,3.87-3.67,4.5-2.67,.89-4.79-.99-4.95-1.14,.03,8.78,.06,17.55,.09,26.33,.56-2.76,1.61-4.25,2.71-5.08,1.78-1.35,3.37-.76,6.07-1.76,2.1-.78,3.73-2.11,4.95-3.42,.18,1.43,.36,4.23-.66,7.46-.87,2.78-2.24,4.66-3.11,5.67-.82,.67-2.62,1.96-5.21,2.31-2.12,.29-3.83-.18-4.76-.52v32.52h-2.7v-21.2c-3.44,1.02-6.11,.55-7.49,.19-6.85-1.8-10.09-8.58-10.84-10.16-1.37-2.86-1.87-5.5-2.08-7.19,1.15,.7,2.95,1.63,5.26,2.22,4.51,1.14,6.76-.12,9.81,1.35,1.39,.67,3.24,2.06,4.9,5.25v-20.01c-.7,.25-3.05,.97-5.75-.16-2.87-1.2-4.22-3.68-4.56-4.36-.86-2.54-1.72-5.08-2.58-7.63,.92,.65,2.33,1.46,4.15,1.73,1.88,.28,2.76-.23,4.39,.1,1.12,.23,2.65,.85,4.34,2.7-.14-1.97-.31-4.83-.38-8.29-.26-12.82-.34-19.34,2.89-25.01,1-1.75,3.6-6.17,8.72-8,4.89-1.75,9.2-.09,10.68,.56Z"/>
      <path class="cls-1" d="M129.88,61.64c.19-1.48,.58-3.67,1.48-6.16,.76-2.09,3.41-9.44,10.29-12.98,1.42-.73,3.86-1.73,7.18-1.86,.45,1.24,1.2,3.77,.89,6.99-.41,4.09-2.31,6.81-3.09,7.82,1-.29,4.36-1.12,8.11,.69,3.55,1.72,5.27,4.76,5.8,5.79-.35,1.08-1.73,4.92-5.51,7.42-3.85,2.54-7.61,2-8.61,1.82,2.34,3.32,2.93,6.21,3.1,7.9,.26,2.54-.01,6.38-.46,6.42-.03,0-.06-.02-.07-.02-.71-.51-10.32-2.54-14.32-5.65-1.29-1-4.81-4.3-5.36-14.12-1.63-.94-4.73-2.32-8.21-1.44-6.92,1.75-9.35,10.9-9.65,12.06-.62,2.48-.69,4.91-.79,8.53-.08,2.91,.03,5.34,.16,7.07,1.38-1.05,2.76-2.09,4.14-3.13,1.82-.23,3.64-.46,5.47-.69-.26,1.54-.53,3.08-.8,4.61-.4,2.14-1.81,3.87-3.67,4.5-2.67,.89-4.79-.99-4.95-1.14,.03,8.78,.06,17.55,.1,26.33,.56-2.76,1.61-4.24,2.71-5.08,1.78-1.35,3.37-.75,6.07-1.76,2.1-.78,3.73-2.11,4.95-3.42,.18,1.43,.36,4.23-.65,7.46-.87,2.78-2.24,4.66-3.11,5.67-.82,.67-2.62,1.96-5.21,2.31-2.12,.29-3.83-.18-4.76-.52v32.52h-2.7v-21.21c-3.44,1.02-6.11,.55-7.49,.19-6.85-1.8-10.09-8.58-10.84-10.16-1.37-2.86-1.87-5.5-2.08-7.19,1.15,.7,2.95,1.63,5.26,2.22,4.51,1.14,6.76-.12,9.81,1.35,1.39,.67,3.24,2.06,4.91,5.25v-20.01c-.7,.25-3.05,.97-5.75-.16-2.87-1.2-4.22-3.68-4.56-4.36-.86-2.54-1.72-5.08-2.58-7.63,.92,.65,2.33,1.46,4.15,1.73,1.88,.28,2.76-.23,4.39,.1,1.12,.23,2.65,.85,4.34,2.7-.14-1.96-.31-4.83-.38-8.29-.26-12.82-.35-19.34,2.89-25.01,1-1.75,3.6-6.17,8.72-8,4.89-1.75,9.2-.09,10.68,.56Z"/>
      <path class="cls-3" d="M35.67,211.16c2.89-1.96,90.45,0,90.45,0l11.54-72.37h13.47v-20.9H8.12v20.16l13.35,.1,14.2,73.02Z"/>
    </g>
  </g>
</svg>