<?xml version="1.0" encoding="UTF-8"?>
<svg id="Layer_2" data-name="Layer 2" xmlns="http://www.w3.org/2000/svg" viewBox="0 0 220.96 197.55">
  <defs>
    <style>
      .cls-1 {
        fill: #fbc166;
      }

      .cls-2 {
        fill: #b0d794;
      }

      .cls-3 {
        fill: #f5b042;
      }

      .cls-4 {
        fill: #68994b;
      }

      .cls-5 {
        fill: #aed492;
      }

      .cls-6 {
        fill: #dc8757;
      }

      .cls-7 {
        fill: #71a951;
      }

      .cls-8 {
        fill: #6fa850;
      }

      .cls-9 {
        fill: #d9804a;
      }

      .cls-10 {
        fill: #f7be65;
      }

      .cls-11 {
        fill: #9bcd7b;
      }

      .cls-12 {
        fill: #f9b244;
      }

      .cls-13 {
        fill: #67984a;
      }

      .cls-14 {
        fill: #99c979;
      }
    </style>
  </defs>
  <g id="Layer_1-2" data-name="Layer 1">
    <g>
      <path class="cls-2" d="M209.12,61.85c.09,2.01,1.69,3.15,2.68,4.64,4.16,6.27,3.27,14.43-2.94,18.6-16.89,11.34-34.08,22.25-51.15,33.33-7.84,.19-13.05-3.55-16.62-10.43-7.49-14.43-15.3-28.69-22.88-43.08-3.39-6.44-6.55-13.01-9.81-19.53,6.86-4.68,13.72-9.36,20.59-14.04,10.45-6.74,20.89-13.5,31.37-20.2,1.79-1.15,3.35-2.77,5.62-3.08,2.14,3.99,5.24,7.22,8.19,10.58,5.75,7.42,11.35,14.96,17.3,22.21,3,3.65,5.24,7.99,9.3,10.73,2.16,3.93,4.75,7.5,8.36,10.25Z"/>
      <path class="cls-6" d="M63.51,170.48c-3.02,6.99-5.95,14.02-9.08,20.95-2.27,5.02-5.77,6.9-11.3,5.82-10.24-2-20.44-4.18-30.61-6.5-5.58-1.28-7.81-4.22-7.87-9.87-.07-7.14,.02-14.28,.05-21.42,6.88-.13,13.28,2.41,19.94,3.53,13.02,2.17,25.7,6.07,38.86,7.5Z"/>
      <path class="cls-7" d="M67.16,64.95c14.04,1.09,28.07,2.17,42.11,3.26,5.98,11.43,11.96,22.86,17.94,34.29-4.58-.97-8.63-3.27-12.85-5.12-16.79-7.38-33.55-14.83-50.32-22.25,1.04-3.39,2.08-6.78,3.12-10.17Z"/>
      <path class="cls-8" d="M174.37,3.53c12.67-5.87,25.54-4.35,34.84,4.11,10.76,9.79,14.48,24.19,9.71,37.71-1.27,3.6-2.94,7.01-5.26,10.07-1.73-4.64-4.66-8.32-8.76-11.08,8.28-16.73-5.68-35.86-22.55-29.87-2.5-3.77-6.26-6.61-7.98-10.94Z"/>
      <path class="cls-11" d="M127.2,102.49c-5.98-11.43-11.96-22.86-17.94-34.29-2.95-6-5.9-11.99-8.86-17.99,2.35-1.61,4.7-3.22,7.04-4.83,.32,0,.64,0,.96,0,3.26,6.51,6.41,13.08,9.81,19.53,7.58,14.39,15.39,28.65,22.88,43.08,3.57,6.88,8.77,10.62,16.62,10.43-9.18,7.3-16.32,6.41-23.39-2.93-2.37-4.34-4.75-8.67-7.12-13.01Z"/>
      <path class="cls-14" d="M75.47,108.33c-1.14,12.92-9.23,19.56-23.31,19.14-7.11-.21-7.14-.22-8.51,6.65-.55,2.75-.96,5.52-1.43,8.29-2.28-.42-4.56-.85-6.83-1.27,.92-4.18,1.76-8.37,2.79-12.52,.59-2.39,.08-3.68-2.52-4.23-2.23-.47-4.44-1.26-6.52-2.22-10.49-4.82-14.5-14.66-10.69-25.92,.63,12.21,9.66,19.87,25.02,21.03,.32,.13,.64,.13,.95,0,11.46,4.27,24.73,3.83,31.04-8.94Z"/>
      <path class="cls-13" d="M127.2,102.49c2.37,4.34,4.75,8.67,7.12,13.01-24.18-11.27-48.37-22.53-72.56-33.79,.56-2.09,1.11-4.19,1.67-6.29,.19-.11,.39-.21,.6-.3,16.77,7.42,33.53,14.87,50.32,22.25,4.22,1.86,8.27,4.16,12.85,5.12Z"/>
      <path class="cls-12" d="M4.32,150.5c-5.64-1.56-4.57-5.47-3.32-9.45,15.09,4.68,30.69,7.1,46.12,10.25,8.73,1.78,17.28,4.76,26.33,4.78,.02,4.52-1.02,8.08-6.71,7.47-20.81-4.35-41.61-8.7-62.42-13.05Z"/>
      <path class="cls-10" d="M73.45,156.08c-9.06-.02-17.6-3-26.33-4.78-15.43-3.15-31.03-5.57-46.12-10.25,1.12-5.9,2.17-6.61,7.87-5.41,8.83,1.85,17.67,3.67,26.51,5.51,2.28,.42,4.56,.85,6.84,1.27,9.06,1.98,18.12,3.96,27.18,5.92,4.98,1.08,5.73,2.49,4.05,7.74Z"/>
      <path class="cls-1" d="M108.4,45.39c-.32,0-.64,0-.96,0-.22-1.79-.34-3.6-.67-5.38-1.32-7.17-2.13-14.32-.36-21.56,.66-2.69,2.43-5.13,1.93-8.09,0,0-.04,.07-.04,.07,.37-.33,.74-.67,1.1-1,0,0-.03,.02-.03,.02,.36-.32,.72-.64,1.08-.95,2.23-2.42,3.36-.56,4.49,1.18,4.69,7.22,9.37,14.45,14.05,21.68-6.86,4.68-13.73,9.36-20.59,14.04Z"/>
      <path class="cls-9" d="M4.47,150.61c20.75,4.34,41.51,8.68,62.26,13.02-.81,2.41-1.68,4.78-3.23,6.84-13.16-1.42-25.85-5.32-38.86-7.5-6.66-1.11-13.07-3.66-19.94-3.53-.08-2.95-.16-5.89-.23-8.84Z"/>
      <path class="cls-1" d="M64.04,75.11c-.21,.09-.41,.19-.6,.3-6.03,4.04-12.49,3.52-19.06,1.81,2.22-7.44,4.46-14.88,6.65-22.33,.85-2.9,2.56-2.94,4.97-1.87,5.44,2.41,9.37,6.16,11.17,11.93-1.04,3.39-2.08,6.78-3.12,10.17Z"/>
      <path class="cls-5" d="M43.47,117.28c-15.36-1.16-24.39-8.82-25.02-21.03-.2-2.02,1.06-1.98,2.54-1.94,13.07,.36,22.32,9.78,22.48,22.97Z"/>
      <path class="cls-5" d="M75.47,108.33c-6.32,12.76-19.59,13.21-31.04,8.94,5.05-11.91,19.23-17.37,30.45-11.75,1.45,.73,1.3,1.69,.6,2.82Z"/>
      <path class="cls-3" d="M108.35,10.36c.5,2.96-1.27,5.4-1.93,8.09-1.77,7.24-.97,14.39,.36,21.56,.33,1.77,.45,3.58,.67,5.38-2.35,1.61-4.69,3.22-7.04,4.83-6.25-14.29-2.88-31.19,7.94-39.86Z"/>
      <path class="cls-3" d="M44.38,77.22c6.57,1.71,13.03,2.24,19.06-1.81-.56,2.1-1.11,4.19-1.67,6.29-3.53,3.55-7.86,4.78-12.73,4.2-7.45-.89-7.71-1.43-4.66-8.68Z"/>
      <path class="cls-13" d="M174.37,3.53c1.72,4.33,5.48,7.18,7.98,10.94-2.73,1.39-5.46,2.79-8.19,4.18-2.95-3.36-6.05-6.59-8.19-10.58,2.33-2.38,5.31-3.56,8.4-4.54Z"/>
      <path class="cls-4" d="M204.91,44.34c4.1,2.76,7.03,6.44,8.76,11.08-.99,2.51-2.46,4.69-4.54,6.42-3.6-2.75-6.2-6.32-8.35-10.25,1.38-2.42,2.76-4.83,4.13-7.25Z"/>
    </g>
  </g>
</svg>