<svg width="19" height="19" viewBox="0 0 19 19" fill="none" xmlns="http://www.w3.org/2000/svg">
    <path d="M8.14191 13.9423C9.45956 13.942 10.7392 13.5021 11.7772 12.6925L15.0406 15.9473L16.0902 14.9004L12.8269 11.6456C13.639 10.6103 14.0804 9.33374 14.0807 8.01924C14.0807 4.7534 11.4164 2.09616 8.14191 2.09616C4.86741 2.09616 2.20312 4.7534 2.20312 8.01924C2.20312 11.2851 4.86741 13.9423 8.14191 13.9423ZM8.14191 3.57693C10.5983 3.57693 12.596 5.5693 12.596 8.01924C12.596 10.4692 10.5983 12.4615 8.14191 12.4615C5.68548 12.4615 3.68782 10.4692 3.68782 8.01924C3.68782 5.5693 5.68548 3.57693 8.14191 3.57693Z" fill="white"/>
</svg>
