<svg width="11" height="11" viewBox="0 0 11 11" fill="none" xmlns="http://www.w3.org/2000/svg">
    <path d="M1.69869 10.0929C1.69869 10.0929 0.932617 10.0929 0.932617 9.26787C0.932617 8.44287 1.69869 5.96787 5.52905 5.96787C9.3594 5.96787 10.1255 8.44287 10.1255 9.26787C10.1255 10.0929 9.3594 10.0929 9.3594 10.0929H1.69869ZM5.52905 5.14287C6.13857 5.14287 6.72313 4.88211 7.15413 4.41796C7.58513 3.95381 7.82726 3.32428 7.82726 2.66787C7.82726 2.01146 7.58513 1.38193 7.15413 0.917782C6.72313 0.453629 6.13857 0.192871 5.52905 0.192871C4.91952 0.192871 4.33496 0.453629 3.90396 0.917782C3.47296 1.38193 3.23083 2.01146 3.23083 2.66787C3.23083 3.32428 3.47296 3.95381 3.90396 4.41796C4.33496 4.88211 4.91952 5.14287 5.52905 5.14287Z" fill="black"/>
</svg>
