<svg width="24" height="24" viewBox="0 0 24 24" fill="none" xmlns="http://www.w3.org/2000/svg">
<rect width="24" height="24" fill="white"/>
<path d="M21.6399 13C21.4955 12.8807 21.3206 12.8043 21.135 12.7795C20.9493 12.7548 20.7605 12.7827 20.5899 12.86C19.5325 13.3439 18.3828 13.5929 17.2199 13.59C15.0687 13.5874 13.0059 12.7344 11.481 11.2171C9.9562 9.69976 9.09309 7.64111 9.07989 5.49C9.08445 4.81583 9.16836 4.14454 9.32989 3.49C9.36417 3.31554 9.35131 3.13509 9.29265 2.96725C9.23398 2.79941 9.13163 2.65025 8.99613 2.53513C8.86064 2.42001 8.6969 2.3431 8.52179 2.31231C8.34668 2.28153 8.16652 2.29799 7.99989 2.36C6.43222 3.06491 5.06946 4.15676 4.03965 5.53298C3.00984 6.9092 2.34677 8.52462 2.11274 10.2275C1.87871 11.9303 2.0814 13.6647 2.70176 15.2678C3.32213 16.8708 4.3398 18.2898 5.65919 19.3915C6.97858 20.4932 8.55637 21.2414 10.2443 21.5658C11.9323 21.8903 13.675 21.7803 15.3088 21.2462C16.9426 20.7122 18.4139 19.7716 19.5843 18.5128C20.7547 17.254 21.586 15.7183 21.9999 14.05C22.0503 13.859 22.043 13.6573 21.979 13.4705C21.9149 13.2836 21.7969 13.1199 21.6399 13ZM12.1399 19.69C10.4617 19.6782 8.82809 19.1479 7.46288 18.1717C6.09767 17.1956 5.06756 15.8213 4.51357 14.2371C3.95959 12.6529 3.90883 10.9362 4.36823 9.322C4.82763 7.70782 5.77475 6.2751 7.07989 5.22V5.49C7.08254 8.17848 8.15171 10.7561 10.0528 12.6571C11.9538 14.5582 14.5314 15.6274 17.2199 15.63C17.9258 15.6326 18.6299 15.5588 19.3199 15.41C18.6298 16.7155 17.5964 17.8078 16.331 18.5691C15.0657 19.3304 13.6166 19.7318 12.1399 19.73V19.69Z" fill="black"/>
</svg>
