<svg width="36" height="30" viewBox="0 0 36 30" fill="none" xmlns="http://www.w3.org/2000/svg">
    <path d="M18.0003 12.1C19.5121 12.1 20.9619 11.4994 22.0309 10.4305C23.0998 9.3615 23.7003 7.91168 23.7003 6.39995C23.7003 4.88822 23.0998 3.4384 22.0309 2.36944C20.9619 1.30049 19.5121 0.699951 18.0003 0.699951C16.4886 0.699951 15.0388 1.30049 13.9698 2.36944C12.9009 3.4384 12.3003 4.88822 12.3003 6.39995C12.3003 7.91168 12.9009 9.3615 13.9698 10.4305C15.0388 11.4994 16.4886 12.1 18.0003 12.1ZM10.4003 10.2C10.4003 11.2078 9.99999 12.1743 9.28735 12.887C8.57471 13.5996 7.60816 14 6.60034 14C5.59252 14 4.62597 13.5996 3.91334 12.887C3.2007 12.1743 2.80034 11.2078 2.80034 10.2C2.80034 9.19213 3.2007 8.22558 3.91334 7.51295C4.62597 6.80031 5.59252 6.39995 6.60034 6.39995C7.60816 6.39995 8.57471 6.80031 9.28735 7.51295C9.99999 8.22558 10.4003 9.19213 10.4003 10.2ZM1.83134 24.1194C1.50698 23.935 1.26409 23.6351 1.15114 23.2796C0.816371 22.1953 0.812861 21.0358 1.14106 19.9495C1.46926 18.8632 2.11422 17.8996 2.99337 17.1821C3.87251 16.4645 4.94581 16.0258 6.07583 15.9219C7.20585 15.8181 8.34115 16.0539 9.33634 16.5992C7.29124 18.6089 6.01121 21.2691 5.71684 24.1213C5.67314 24.5431 5.69024 24.9611 5.76434 25.3639C4.37764 25.2439 3.0346 24.819 1.83134 24.1194ZM30.2363 25.3619C31.6229 25.2426 32.9659 24.8183 34.1693 24.1194C34.493 23.9346 34.7352 23.6348 34.8476 23.2796C35.1829 22.1952 35.1869 21.0353 34.8589 19.9487C34.5309 18.8621 33.886 17.8981 33.0067 17.1803C32.1275 16.4625 31.0539 16.0235 29.9237 15.9196C28.7934 15.8158 27.6578 16.0517 26.6624 16.5972C28.7093 18.6069 29.9908 21.2679 30.2857 24.1213C30.3281 24.5357 30.3114 24.9541 30.2363 25.3639V25.3619ZM33.2003 10.2C33.2003 11.2078 32.8 12.1743 32.0873 12.887C31.3747 13.5996 30.4082 14 29.4003 14C28.3925 14 27.426 13.5996 26.7133 12.887C26.0007 12.1743 25.6003 11.2078 25.6003 10.2C25.6003 9.19213 26.0007 8.22558 26.7133 7.51295C27.426 6.80031 28.3925 6.39995 29.4003 6.39995C30.4082 6.39995 31.3747 6.80031 32.0873 7.51295C32.8 8.22558 33.2003 9.19213 33.2003 10.2ZM9.07794 25.761C8.89056 25.5931 8.74528 25.3836 8.65386 25.1492C8.56243 24.9149 8.52741 24.6623 8.55164 24.4119C8.79331 22.074 9.89312 19.9086 11.6385 18.3343C13.3839 16.7601 15.6508 15.8887 18.0013 15.8887C20.3517 15.8887 22.6187 16.7601 24.3641 18.3343C26.1095 19.9086 27.2093 22.074 27.4509 24.4119C27.4753 24.6623 27.4404 24.915 27.3489 25.1493C27.2575 25.3837 27.1121 25.5932 26.9246 25.761C24.4816 27.9781 21.2995 29.2044 18.0003 29.2C14.7018 29.2041 11.5204 27.9779 9.07794 25.761Z" fill="black"/>
</svg>