<?xml version="1.0" encoding="UTF-8"?>
<svg id="Layer_2" data-name="Layer 2" xmlns="http://www.w3.org/2000/svg" viewBox="0 0 159.75 117.38">
  <defs>
    <style>
      .cls-1 {
        fill: #60c2a9;
      }

      .cls-2 {
        fill: #94cc87;
      }
    </style>
  </defs>
  <g id="Layer_1-2" data-name="Layer 1">
    <g>
      <path class="cls-2" d="M2.55,55.27c5.87-5.1,11.88-10.04,17.72-15.19,.47-.41,.99-.76,1.47-1.15,.81-.65,1.06-.89,1.47-.89,.36,0,.62,.19,1.28,.76,.93,.8,1.39,1.2,1.65,1.5,9.18,10.47,19.11,20.27,28.43,30.62,2.74,3.04,4.21,2.57,6.83-.01,6.14-6.02,12.64-11.68,18.99-17.49,.06,13.92,.13,27.84,.19,41.76-7.51,7.04-15.1,14-22.5,21.15-2.08,2.02-2.98,.72-4.28-.67-15.66-16.78-31.31-33.55-47.05-50.26-.25-.26-1.12-1.48-2.56-3.12-1.64-1.86-3.21-3.46-4.19-4.8,.85-.74,1.7-1.47,2.55-2.21Z"/>
      <path class="cls-1" d="M80.17,95.46c-.06-13.92-.13-27.84-.19-41.76,17.09-15.96,34.19-31.9,51.25-47.88,0,0,1.95-1.85,5.3-4.54,.18-.14,.3-.23,.51-.39,.75-.55,1.13-.83,1.43-.88,.59-.09,1.13,.39,1.43,.66,4.17,3.83,5.86,5.81,5.86,5.81,.97,1.14,2.01,2.2,3.03,3.3,3.04,3.28,6.12,6.53,9.17,9.81,.31,.42,.59,.74,.79,.96,.28,.31,.48,.68,.78,.97,.07,.06,.21,.19,.2,.36,0,.19-.19,.32-.24,.36-.51,.39-.88,.95-1.4,1.32-.37,.26-.21,.2-1.76,1.69-1.36,1.31-2.4,2.24-2.61,2.44-24.02,22.18-47.98,44.42-71.96,66.64-.47,.44-1.06,.76-1.59,1.14Z"/>
    </g>
  </g>
</svg>